name C:\Users\r0593348\3dpredictsim\Results\batch_windlass\Pog_s1_tmt_bCst_d00_k1000_WL10_ig24_pas.mot
datacolumns 128
datarows 4
range 1.62343342 1.65590209
endheader
time	pelvis_tilt	pelvis_list	pelvis_rotation	pelvis_tx	pelvis_ty	pelvis_tz	hip_flexion_l	hip_adduction_l	hip_rotation_l	hip_flexion_r	hip_adduction_r	hip_rotation_r	knee_angle_l	knee_angle_r	ankle_angle_l	ankle_angle_r	subtalar_angle_l	subtalar_angle_r	tmt_angle_l	tmt_angle_r	mtp_angle_l	mtp_angle_r	lumbar_extension	lumbar_bending	lumbar_rotation	arm_flex_l	arm_add_l	arm_rot_l	arm_flex_r	arm_add_r	arm_rot_r	elbow_flex_l	elbow_flex_r	pro_sup_l	pro_sup_r	glut_med1_l/activation	glut_med2_l/activation	glut_med3_l/activation	glut_min1_l/activation	glut_min2_l/activation	glut_min3_l/activation	semimem_l/activation	semiten_l/activation	bifemlh_l/activation	bifemsh_l/activation	sar_l/activation	add_long_l/activation	add_brev_l/activation	add_mag1_l/activation	add_mag2_l/activation	add_mag3_l/activation	tfl_l/activation	pect_l/activation	grac_l/activation	glut_max1_l/activation	glut_max2_l/activation	glut_max3_l/activation	iliacus_l/activation	psoas_l/activation	quad_fem_l/activation	gem_l/activation	peri_l/activation	rect_fem_l/activation	vas_med_l/activation	vas_int_l/activation	vas_lat_l/activation	med_gas_l/activation	lat_gas_l/activation	soleus_l/activation	tib_post_l/activation	flex_dig_l/activation	flex_hal_l/activation	tib_ant_l/activation	per_brev_l/activation	per_long_l/activation	per_tert_l/activation	ext_dig_l/activation	ext_hal_l/activation	ercspn_l/activation	intobl_l/activation	extobl_l/activation	glut_med1_r/activation	glut_med2_r/activation	glut_med3_r/activation	glut_min1_r/activation	glut_min2_r/activation	glut_min3_r/activation	semimem_r/activation	semiten_r/activation	bifemlh_r/activation	bifemsh_r/activation	sar_r/activation	add_long_r/activation	add_brev_r/activation	add_mag1_r/activation	add_mag2_r/activation	add_mag3_r/activation	tfl_r/activation	pect_r/activation	grac_r/activation	glut_max1_r/activation	glut_max2_r/activation	glut_max3_r/activation	iliacus_r/activation	psoas_r/activation	quad_fem_r/activation	gem_r/activation	peri_r/activation	rect_fem_r/activation	vas_med_r/activation	vas_int_r/activation	vas_lat_r/activation	med_gas_r/activation	lat_gas_r/activation	soleus_r/activation	tib_post_r/activation	flex_dig_r/activation	flex_hal_r/activation	tib_ant_r/activation	per_brev_r/activation	per_long_r/activation	per_tert_r/activation	ext_dig_r/activation	ext_hal_r/activation	ercspn_r/activation	intobl_r/activation	extobl_r/activation	
          1.62343342	         -2.91939946	          1.63426538	         -6.56266862	          2.02929178	          0.85576112	          0.00282696	         32.29996263	          2.94868696	         -0.77437517	        -18.24257459	         -1.76019445	          9.98842215	        -20.53308638	        -10.40583721	         -2.03208809	         -2.80328349	         -5.96105828	         12.24215644	         -0.07893148	         -1.99291946	          0.90434367	         27.42047089	         -1.03036989	          0.06585226	          1.73253402	        -10.22832381	        -13.84053832	          9.49004134	          5.70064661	        -13.47399170	         16.38175073	         17.09623204	         36.87212025	         86.51662706	         86.51662706	          0.05000107	          0.05000057	          0.05901805	          0.05000049	          0.05000057	          0.05000170	          0.05840128	          0.05902085	          0.20216767	          0.05901945	          0.05001533	          0.11308191	          0.12739234	          0.14176284	          0.12109930	          0.11141317	          0.05000392	          0.05009386	          0.07943382	          0.05901874	          0.05901931	          0.08461096	          0.06211540	          0.06901333	          0.22059706	          0.05000082	          0.05000060	          0.05000019	          0.12815383	          0.13861383	          0.11169225	          0.06966500	          0.06966495	          0.06966499	          0.05637578	          0.05901950	          0.05901951	          0.43283731	          0.39787210	          0.18844194	          0.30946449	          0.64835502	          0.15021396	          0.05426878	          0.10560538	          0.11457280	          0.28522548	          0.09470441	          0.05000039	          0.33774753	          0.21139442	          0.09706413	          0.05000309	          0.05000041	          0.05000037	          0.07347915	          0.10257077	          0.12595708	          0.05000130	          0.05000092	          0.05000248	          0.05000229	          0.29286485	          0.05030796	          0.05000130	          0.05000874	          0.05000402	          0.05000225	          0.33344032	          0.51639767	          0.05000054	          0.05000230	          0.05000028	          0.18842953	          0.13063904	          0.05902130	          0.08043868	          0.29380041	          0.37799135	          0.24575479	          0.20021268	          0.23358827	          0.29162146	          0.05000001	          0.11258942	          0.17242872	          0.05000013	          0.05000004	          0.05000011	          0.05000002	          0.05000023	          0.05000005	
          1.63425631	         -2.90475789	          1.79685220	         -6.84073877	          2.04601223	          0.85464245	          0.00260283	         31.76058218	          3.45922359	         -0.51997221	        -17.79311710	         -2.09918432	          9.70552398	        -20.36602223	        -12.79275386	         -2.24508688	         -3.87403523	         -6.73143470	         13.41437542	         -0.10108161	         -2.36074580	          1.07431529	         28.23477566	         -0.81394146	         -0.23131358	          1.81027792	        -11.31010601	        -13.83081022	          9.30639675	          5.40462712	        -13.50738948	         16.66973480	         17.04539444	         37.92201386	         86.51662706	         86.51662706	          0.07410039	          0.05901522	          0.05000014	          0.05901920	          0.05901911	          0.05000494	          0.05000478	          0.05000160	          0.18401972	          0.05000041	          0.05000112	          0.10980330	          0.24122286	          0.12009988	          0.10259802	          0.13757043	          0.05000025	          0.08216598	          0.06729532	          0.05000033	          0.05000035	          0.15053537	          0.05902198	          0.05901879	          0.33643015	          0.12356640	          0.08061140	          0.05489824	          0.22234737	          0.22287945	          0.18604681	          0.05901906	          0.05901903	          0.05901905	          0.05000000	          0.05000047	          0.05000051	          0.61475544	          0.33707084	          0.15964497	          0.59888161	          0.74512850	          0.37955656	          0.05000003	          0.08946717	          0.09706423	          0.24163854	          0.08023208	          0.05000004	          0.28613439	          0.17909000	          0.08223124	          0.05000193	          0.05000018	          0.05000012	          0.06225036	          0.08689654	          0.15473319	          0.25011516	          0.05023753	          0.05000199	          0.05000039	          0.24811060	          0.12273994	          0.05000126	          0.05000075	          0.05000049	          0.05000035	          0.28248526	          0.44050565	          0.05000009	          0.05000042	          0.05000029	          0.15963446	          0.11067700	          0.05000270	          0.12451593	          0.24890293	          0.32022814	          0.20819946	          0.16961697	          0.19789234	          0.24705706	          0.06614950	          0.09538402	          0.14607885	          0.05000018	          0.14317206	          0.05000063	          0.05000009	          0.05000009	          0.05901924	
          1.64507920	         -2.88456235	          1.96287215	         -7.08873068	          2.06295991	          0.85326357	          0.00237893	         31.09215663	          3.96875837	         -0.18185883	        -17.23335764	         -2.41554701	          9.41125220	        -20.74930687	        -15.39530347	         -2.26538190	         -4.94202632	         -7.54526445	         14.49492977	         -0.12780424	         -2.71158884	          1.24906365	         28.53566739	         -0.58188120	         -0.53846542	          1.87740881	        -12.37328579	        -13.82604849	          9.18675876	          5.03412056	        -13.55529878	         16.88719775	         16.95707621	         38.97270622	         86.51662706	         86.51662706	          0.18470531	          0.05000012	          0.16538272	          0.05000017	          0.05000016	          0.05000018	          0.05000006	          0.05000017	          0.15589857	          0.05000010	          0.05000091	          0.09302373	          0.20436081	          0.32565035	          0.25698975	          0.15675261	          0.05000084	          0.06965005	          0.07812025	          0.15362747	          0.15407234	          0.14484652	          0.05000259	          0.05000119	          0.38890997	          0.10468366	          0.06829282	          0.05901918	          0.35198613	          0.34112105	          0.28721015	          0.05000001	          0.05000002	          0.05000000	          0.07230153	          0.05000223	          0.05000023	          0.55769673	          0.28556097	          0.13524864	          0.50736294	          0.63126082	          0.32155426	          0.05000004	          0.07579514	          0.08223124	          0.20471229	          0.06797145	          0.05906893	          0.24240850	          0.15172221	          0.06966508	          0.05000397	          0.05000074	          0.05902533	          0.05273752	          0.07361750	          0.23016180	          0.35984936	          0.30406423	          0.09251722	          0.13524710	          0.21019543	          0.10398383	          0.05000195	          0.05904332	          0.06491251	          0.06966480	          0.23931694	          0.37319013	          0.06966497	          0.06966320	          0.05901909	          0.13523974	          0.10107757	          0.11457199	          0.10548922	          0.21086652	          0.27129209	          0.17638320	          0.14369678	          0.16765131	          0.20930282	          0.21066319	          0.08080788	          0.12375569	          0.32190528	          0.25939765	          0.18364706	          0.08301932	          0.06966499	          0.05000025	
          1.65590209	         -2.86102814	          2.12083128	         -7.30674670	          2.07998312	          0.85168164	          0.00217190	         30.16388069	          4.43757533	          0.21795770	        -16.55941393	         -2.69234231	          9.12063005	        -21.16765147	        -18.20911702	         -2.16806725	         -5.91894399	         -8.39822823	         15.44287951	         -0.36255320	         -2.85196564	          1.24883029	         27.78921207	         -0.34581567	         -0.83810554	          1.93354171	        -13.38409824	        -13.82687279	          9.15420738	          4.61577685	        -13.61463747	         17.04642283	         16.80972476	         40.00865106	         86.51662706	         86.51662706	          0.36300183	          0.37091340	          0.48589803	          0.36804702	          0.19906439	          0.29059849	          0.08312415	          0.11712749	          0.13207556	          0.06966504	          0.05000076	          0.07880826	          0.17313124	          0.27588593	          0.21771814	          0.16580496	          0.05000024	          0.05901297	          0.08920127	          0.29001970	          0.22654856	          0.15098210	          0.05000026	          0.05000020	          0.32947831	          0.08868650	          0.22323204	          0.05000011	          0.33449823	          0.34592730	          0.28746307	          0.05901907	          0.05901907	          0.05901907	          0.16911365	          0.05000147	          0.05902001	          0.62497031	          0.24192263	          0.11458046	          0.42982973	          0.61143743	          0.36454612	          0.05894123	          0.07974773	          0.06966498	          0.28078630	          0.05758440	          0.05004228	          0.20536632	          0.12853674	          0.05901926	          0.05586493	          0.05000119	          0.05000569	          0.05000025	          0.06236817	          0.19498949	          0.30485886	          0.25759835	          0.07837939	          0.11457926	          0.25836182	          0.08809551	          0.05901101	          0.05002151	          0.05499340	          0.05901908	          0.20274549	          0.34207541	          0.05901908	          0.05901778	          0.05000026	          0.11457292	          0.08563131	          0.09706356	          0.08936878	          0.17864269	          0.22983426	          0.14942898	          0.12173767	          0.14203167	          0.17731815	          0.22135203	          0.12786418	          0.11493926	          0.30525009	          0.28485519	          0.15558297	          0.11815446	          0.05901905	          0.05000006	
